<svg width="13" height="17" viewBox="0 0 13 17" fill="none" xmlns="http://www.w3.org/2000/svg">
<g id="fa-solid:fist-raised" clip-path="url(#clip0_64_431)">
<path id="Vector" d="M8.49937 5.5V1C8.49937 0.72375 8.27562 0.5 7.99937 0.5H6.99937C6.72312 0.5 6.49937 0.72375 6.49937 1V5.59156C6.65625 5.53594 6.8225 5.5 6.99844 5.5H8.49937ZM12.4994 8.49969C12.4991 7.39531 11.6038 6.5 10.4997 6.5H6.99531C6.72094 6.5 6.49844 6.72094 6.49844 6.99531V7.01281C6.49844 7.83375 7.16406 8.5 7.985 8.5H9.08687C9.38937 8.5 9.49938 8.61187 9.49938 8.75V9.25625C9.49938 9.39031 9.38719 9.49938 9.25313 9.50625C7.86188 9.5775 7.24813 10.2784 6.25156 11.7734L6.05438 12.0694C6.03618 12.0967 6.01279 12.1202 5.98552 12.1384C5.95826 12.1567 5.92766 12.1694 5.89547 12.1759C5.86329 12.1823 5.83015 12.1824 5.79795 12.176C5.76575 12.1696 5.73512 12.157 5.70781 12.1388L5.29187 11.8612C5.26455 11.8431 5.24108 11.8197 5.22281 11.7924C5.20453 11.7651 5.19181 11.7345 5.18537 11.7023C5.17893 11.6702 5.17889 11.637 5.18526 11.6048C5.19163 11.5726 5.20429 11.542 5.2225 11.5147L5.41969 11.2188C5.91125 10.4812 6.36344 9.86688 6.89813 9.40375C6.35844 9.23156 5.91687 8.8375 5.68344 8.32719C5.4775 8.43375 5.24719 8.49969 5 8.49969H4C3.61438 8.49969 3.26594 8.34937 3 8.10969C2.73375 8.34969 2.38531 8.5 2 8.5H1C0.82375 8.5 0.657188 8.46406 0.5 8.40781V10.8431C0.5 11.9041 0.92125 12.9212 1.67156 13.6716L2.49969 14.5V16.5H10.4991V14.5013L11.6213 13.3787C12.184 12.8159 12.5001 12.0525 12.5 11.2566L12.4994 8.49969ZM11.4991 5.68437V2C11.4991 1.72375 11.2753 1.5 10.9991 1.5H9.99906C9.72281 1.5 9.49906 1.72375 9.49906 2V5.5H10.4991C10.8516 5.5 11.1847 5.57219 11.4991 5.68437ZM1 7.5H2C2.27625 7.5 2.5 7.27625 2.5 7V3C2.5 2.72375 2.27625 2.5 2 2.5H1C0.72375 2.5 0.5 2.72375 0.5 3V7C0.5 7.27625 0.72375 7.5 1 7.5ZM3.99969 7.5H4.99969C5.27594 7.5 5.49969 7.27625 5.49969 7V2C5.49969 1.72375 5.27594 1.5 4.99969 1.5H3.99969C3.72344 1.5 3.49969 1.72375 3.49969 2V7C3.49969 7.27625 3.72344 7.5 3.99969 7.5Z" fill="black" fill-opacity="0.5"/>
</g>
<defs>
<clipPath id="clip0_64_431">
<rect width="12" height="16" fill="white" transform="translate(0.5 0.5)"/>
</clipPath>
</defs>
</svg>
